# xmcd CD database file
#
# Track frame offsets:
#	150
#	31279
#	63624
#	96969
#	125420
#	159992
#	176845
#	203643
#	208929
#	243887
#	276524
#
# Disc length: 4010 seconds
#
# Revision: 0
# Processed by: cddbd v1.5PL3 Copyright (c) Steve Scherf et al.
# Submitted via: CDex 1.51
#
DISCID=a10fa80b
DTITLE=Pierre de Bethmann - Ilium Quintet
DYEAR=2003
DGENRE=Jazz
TTITLE0=VOLSEAU
TTITLE1=K.I.S.S.
TTITLE2=INGERENCES
TTITLE3=SOLUNE
TTITLE4=STEADY
TTITLE5=LA LENTEUR
TTITLE6=DIA
TTITLE7=SISYPHE-1
TTITLE8=SISYPHE-2
TTITLE9=RUPTURES
TTITLE10=ILIUM
EXTD=YEAR: 2003
EXTT0=
EXTT1=
EXTT2=
EXTT3=
EXTT4=
EXTT5=
EXTT6=
EXTT7=
EXTT8=
EXTT9=
EXTT10=
PLAYORDER=
